<mxfile host="app.diagrams.net" agent="Mozilla/5.0 (X11; Linux x86_64) AppleWebKit/537.36 (KHTML, like Gecko) QtWebEngine/6.8.1 Chrome/122.0.6261.171 Safari/537.36" version="26.0.16">
  <diagram name="Page-1" id="LZ5sX_UQB9Ga61Ny_m43">
    <mxGraphModel dx="1429" dy="850" grid="1" gridSize="10" guides="1" tooltips="1" connect="1" arrows="1" fold="1" page="1" pageScale="1" pageWidth="4681" pageHeight="3300" math="0" shadow="0">
      <root>
        <mxCell id="0" />
        <mxCell id="1" parent="0" />
        <mxCell id="EedAa5cOmFAYyV0mvgN3-1" value="General Archive of Simancas" style="swimlane;fontStyle=0;childLayout=stackLayout;horizontal=1;startSize=26;strokeColor=#C6D9F1;strokeWidth=3;fillColor=none;horizontalStack=0;resizeParent=1;resizeParentMax=0;resizeLast=0;collapsible=1;marginBottom=0;whiteSpace=wrap;html=1;" parent="1" vertex="1">
          <mxGeometry x="290" y="270" width="220" height="104" as="geometry" />
        </mxCell>
        <mxCell id="EedAa5cOmFAYyV0mvgN3-2" value="Corporate Body" style="text;strokeColor=#C6D9F1;strokeWidth=3;fillColor=none;align=center;verticalAlign=top;spacingLeft=4;spacingRight=4;overflow=hidden;rotatable=0;points=[[0,0.5],[1,0.5]];portConstraint=eastwest;whiteSpace=wrap;html=1;" parent="EedAa5cOmFAYyV0mvgN3-1" vertex="1">
          <mxGeometry y="26" width="220" height="26" as="geometry" />
        </mxCell>
        <mxCell id="EedAa5cOmFAYyV0mvgN3-3" value="Place" style="text;strokeColor=#C6D9F1;strokeWidth=3;fillColor=none;align=center;verticalAlign=top;spacingLeft=4;spacingRight=4;overflow=hidden;rotatable=0;points=[[0,0.5],[1,0.5]];portConstraint=eastwest;whiteSpace=wrap;html=1;" parent="EedAa5cOmFAYyV0mvgN3-1" vertex="1">
          <mxGeometry y="52" width="220" height="26" as="geometry" />
        </mxCell>
        <mxCell id="EedAa5cOmFAYyV0mvgN3-4" value="Record Set" style="text;strokeColor=#C6D9F1;strokeWidth=3;fillColor=none;align=center;verticalAlign=top;spacingLeft=4;spacingRight=4;overflow=hidden;rotatable=0;points=[[0,0.5],[1,0.5]];portConstraint=eastwest;whiteSpace=wrap;html=1;" parent="EedAa5cOmFAYyV0mvgN3-1" vertex="1">
          <mxGeometry y="78" width="220" height="26" as="geometry" />
        </mxCell>
        <mxCell id="EedAa5cOmFAYyV0mvgN3-5" value="" style="endArrow=classic;html=1;rounded=0;entryX=0;entryY=0.5;entryDx=0;entryDy=0;" parent="1" edge="1" target="EedAa5cOmFAYyV0mvgN3-7">
          <mxGeometry relative="1" as="geometry">
            <mxPoint x="510" y="334.5" as="sourcePoint" />
            <mxPoint x="690" y="334.5" as="targetPoint" />
          </mxGeometry>
        </mxCell>
        <mxCell id="EedAa5cOmFAYyV0mvgN3-6" value="is or was contained by" style="edgeLabel;resizable=0;html=1;;align=center;verticalAlign=middle;" parent="EedAa5cOmFAYyV0mvgN3-5" connectable="0" vertex="1">
          <mxGeometry relative="1" as="geometry" />
        </mxCell>
        <mxCell id="EedAa5cOmFAYyV0mvgN3-7" value="Castle of Simancas" style="swimlane;fontStyle=0;childLayout=stackLayout;horizontal=1;startSize=26;strokeColor=#FAA0A0;strokeWidth=2;fillColor=none;horizontalStack=0;resizeParent=1;resizeParentMax=0;resizeLast=0;collapsible=1;marginBottom=0;whiteSpace=wrap;html=1;" parent="1" vertex="1">
          <mxGeometry x="690" y="310" width="140" height="52" as="geometry" />
        </mxCell>
        <mxCell id="EedAa5cOmFAYyV0mvgN3-8" value="rico:Place" style="text;strokeColor=#FAA0A0;strokeWidth=2;fillColor=#FAA0A0;align=center;verticalAlign=top;spacingLeft=4;spacingRight=4;overflow=hidden;rotatable=0;points=[[0,0.5],[1,0.5]];portConstraint=eastwest;whiteSpace=wrap;html=1;" parent="EedAa5cOmFAYyV0mvgN3-7" vertex="1">
          <mxGeometry y="26" width="140" height="26" as="geometry" />
        </mxCell>
        <mxCell id="EedAa5cOmFAYyV0mvgN3-9" value="" style="endArrow=classic;html=1;rounded=0;entryX=0.002;entryY=0.049;entryDx=0;entryDy=0;entryPerimeter=0;" parent="1" edge="1" target="EedAa5cOmFAYyV0mvgN3-12">
          <mxGeometry relative="1" as="geometry">
            <mxPoint x="830" y="336" as="sourcePoint" />
            <mxPoint x="1010" y="336" as="targetPoint" />
          </mxGeometry>
        </mxCell>
        <mxCell id="EedAa5cOmFAYyV0mvgN3-10" value="has or had location" style="edgeLabel;resizable=0;html=1;;align=center;verticalAlign=middle;" parent="EedAa5cOmFAYyV0mvgN3-9" connectable="0" vertex="1">
          <mxGeometry relative="1" as="geometry" />
        </mxCell>
        <mxCell id="EedAa5cOmFAYyV0mvgN3-11" value="Simancas" style="swimlane;fontStyle=0;childLayout=stackLayout;horizontal=1;startSize=26;strokeColor=#FAA0A0;strokeWidth=2;fillColor=none;horizontalStack=0;resizeParent=1;resizeParentMax=0;resizeLast=0;collapsible=1;marginBottom=0;whiteSpace=wrap;html=1;" parent="1" vertex="1">
          <mxGeometry x="970" y="309" width="90" height="52" as="geometry" />
        </mxCell>
        <mxCell id="EedAa5cOmFAYyV0mvgN3-12" value="rico:Place" style="text;strokeColor=#FAA0A0;strokeWidth=2;fillColor=#FAA0A0;align=center;verticalAlign=top;spacingLeft=4;spacingRight=4;overflow=hidden;rotatable=0;points=[[0,0.5],[1,0.5]];portConstraint=eastwest;whiteSpace=wrap;html=1;" parent="EedAa5cOmFAYyV0mvgN3-11" vertex="1">
          <mxGeometry y="26" width="90" height="26" as="geometry" />
        </mxCell>
        <mxCell id="EedAa5cOmFAYyV0mvgN3-16" value="" style="endArrow=classic;html=1;rounded=0;exitX=1;exitY=0.5;exitDx=0;exitDy=0;entryX=0.012;entryY=0.013;entryDx=0;entryDy=0;entryPerimeter=0;" parent="1" edge="1" target="EedAa5cOmFAYyV0mvgN3-19" source="EedAa5cOmFAYyV0mvgN3-11">
          <mxGeometry relative="1" as="geometry">
            <mxPoint x="1100" y="336" as="sourcePoint" />
            <mxPoint x="1280" y="336" as="targetPoint" />
          </mxGeometry>
        </mxCell>
        <mxCell id="EedAa5cOmFAYyV0mvgN3-17" value="has or had location" style="edgeLabel;resizable=0;html=1;;align=center;verticalAlign=middle;" parent="EedAa5cOmFAYyV0mvgN3-16" connectable="0" vertex="1">
          <mxGeometry relative="1" as="geometry" />
        </mxCell>
        <mxCell id="EedAa5cOmFAYyV0mvgN3-18" value="Valladolid" style="swimlane;fontStyle=0;childLayout=stackLayout;horizontal=1;startSize=26;strokeColor=#FAA0A0;strokeWidth=2;fillColor=none;horizontalStack=0;resizeParent=1;resizeParentMax=0;resizeLast=0;collapsible=1;marginBottom=0;whiteSpace=wrap;html=1;" parent="1" vertex="1">
          <mxGeometry x="1200" y="310" width="90" height="52" as="geometry" />
        </mxCell>
        <mxCell id="EedAa5cOmFAYyV0mvgN3-19" value="rico:Place" style="text;strokeColor=#FAA0A0;strokeWidth=2;fillColor=#FAA0A0;align=center;verticalAlign=top;spacingLeft=4;spacingRight=4;overflow=hidden;rotatable=0;points=[[0,0.5],[1,0.5]];portConstraint=eastwest;whiteSpace=wrap;html=1;" parent="EedAa5cOmFAYyV0mvgN3-18" vertex="1">
          <mxGeometry y="26" width="90" height="26" as="geometry" />
        </mxCell>
        <mxCell id="SC_8lG-UtxNycMUHuPiH-1" value="Collection of the Council of Castile" style="swimlane;fontStyle=0;childLayout=stackLayout;horizontal=1;startSize=26;strokeColor=#DAEEF3;fillColor=none;strokeWidth=3;horizontalStack=0;resizeParent=1;resizeParentMax=0;resizeLast=0;collapsible=1;marginBottom=0;whiteSpace=wrap;html=1;" vertex="1" parent="1">
          <mxGeometry x="290" y="450" width="220" height="52" as="geometry" />
        </mxCell>
        <mxCell id="SC_8lG-UtxNycMUHuPiH-2" value="rico:RecordSet" style="text;strokeColor=#DAEEF3;strokeWidth=3;fillColor=none;align=center;verticalAlign=top;spacingLeft=4;spacingRight=4;overflow=hidden;rotatable=0;points=[[0,0.5],[1,0.5]];portConstraint=eastwest;whiteSpace=wrap;html=1;" vertex="1" parent="SC_8lG-UtxNycMUHuPiH-1">
          <mxGeometry y="26" width="220" height="26" as="geometry" />
        </mxCell>
        <mxCell id="SC_8lG-UtxNycMUHuPiH-3" value="" style="endArrow=classic;html=1;rounded=0;entryX=0.516;entryY=0.995;entryDx=0;entryDy=0;entryPerimeter=0;exitX=0.516;exitY=0;exitDx=0;exitDy=0;exitPerimeter=0;" edge="1" parent="1" source="SC_8lG-UtxNycMUHuPiH-1" target="EedAa5cOmFAYyV0mvgN3-4">
          <mxGeometry relative="1" as="geometry">
            <mxPoint x="410" y="440" as="sourcePoint" />
            <mxPoint x="540" y="450" as="targetPoint" />
          </mxGeometry>
        </mxCell>
        <mxCell id="SC_8lG-UtxNycMUHuPiH-4" value="has or had holder" style="edgeLabel;resizable=0;html=1;;align=center;verticalAlign=middle;" connectable="0" vertex="1" parent="SC_8lG-UtxNycMUHuPiH-3">
          <mxGeometry relative="1" as="geometry" />
        </mxCell>
        <mxCell id="SC_8lG-UtxNycMUHuPiH-5" value="" style="endArrow=classic;html=1;rounded=0;entryX=0.5;entryY=1.049;entryDx=0;entryDy=0;entryPerimeter=0;" edge="1" parent="1" target="SC_8lG-UtxNycMUHuPiH-8">
          <mxGeometry relative="1" as="geometry">
            <mxPoint x="399.71" y="270.0000000000002" as="sourcePoint" />
            <mxPoint x="399.71" y="180" as="targetPoint" />
          </mxGeometry>
        </mxCell>
        <mxCell id="SC_8lG-UtxNycMUHuPiH-6" value="has beginning date" style="edgeLabel;resizable=0;html=1;;align=center;verticalAlign=middle;" connectable="0" vertex="1" parent="SC_8lG-UtxNycMUHuPiH-5">
          <mxGeometry relative="1" as="geometry" />
        </mxCell>
        <mxCell id="SC_8lG-UtxNycMUHuPiH-7" value="Founding of the General Archive of Simancas" style="swimlane;fontStyle=0;childLayout=stackLayout;horizontal=1;startSize=26;strokeColor=#DDD9C3;strokeWidth=2;fillColor=none;horizontalStack=0;resizeParent=1;resizeParentMax=0;resizeLast=0;collapsible=1;marginBottom=0;whiteSpace=wrap;html=1;" vertex="1" parent="1">
          <mxGeometry x="262.5" y="140" width="275" height="52" as="geometry" />
        </mxCell>
        <mxCell id="SC_8lG-UtxNycMUHuPiH-8" value="rico:Date" style="text;strokeColor=#DDD9C3;strokeWidth=2;fillColor=#DDD9C3;align=center;verticalAlign=top;spacingLeft=4;spacingRight=4;overflow=hidden;rotatable=0;points=[[0,0.5],[1,0.5]];portConstraint=eastwest;whiteSpace=wrap;html=1;" vertex="1" parent="SC_8lG-UtxNycMUHuPiH-7">
          <mxGeometry y="26" width="275" height="26" as="geometry" />
        </mxCell>
        <mxCell id="SC_8lG-UtxNycMUHuPiH-9" value="" style="endArrow=classic;html=1;rounded=0;exitX=0.5;exitY=0;exitDx=0;exitDy=0;entryX=0.5;entryY=1;entryDx=0;entryDy=0;" edge="1" parent="1" source="SC_8lG-UtxNycMUHuPiH-7" target="SC_8lG-UtxNycMUHuPiH-11">
          <mxGeometry relative="1" as="geometry">
            <mxPoint x="400" y="100" as="sourcePoint" />
            <mxPoint x="400" y="70" as="targetPoint" />
          </mxGeometry>
        </mxCell>
        <mxCell id="SC_8lG-UtxNycMUHuPiH-10" value="normalized date" style="edgeLabel;resizable=0;html=1;;align=center;verticalAlign=middle;" connectable="0" vertex="1" parent="SC_8lG-UtxNycMUHuPiH-9">
          <mxGeometry relative="1" as="geometry" />
        </mxCell>
        <mxCell id="SC_8lG-UtxNycMUHuPiH-11" value="1540" style="html=1;whiteSpace=wrap;rounded=1;arcSize=50;" vertex="1" parent="1">
          <mxGeometry x="345" y="30" width="110" height="50" as="geometry" />
        </mxCell>
        <mxCell id="SC_8lG-UtxNycMUHuPiH-12" value="" style="endArrow=classic;html=1;rounded=0;exitX=1.006;exitY=0.109;exitDx=0;exitDy=0;exitPerimeter=0;entryX=0.376;entryY=1.016;entryDx=0;entryDy=0;entryPerimeter=0;" edge="1" parent="1" source="EedAa5cOmFAYyV0mvgN3-1" target="SC_8lG-UtxNycMUHuPiH-15">
          <mxGeometry relative="1" as="geometry">
            <mxPoint x="537.5" y="270.0000000000002" as="sourcePoint" />
            <mxPoint x="760" y="180" as="targetPoint" />
          </mxGeometry>
        </mxCell>
        <mxCell id="SC_8lG-UtxNycMUHuPiH-13" value="is associated with date" style="edgeLabel;resizable=0;html=1;;align=center;verticalAlign=middle;" connectable="0" vertex="1" parent="SC_8lG-UtxNycMUHuPiH-12">
          <mxGeometry relative="1" as="geometry" />
        </mxCell>
        <mxCell id="SC_8lG-UtxNycMUHuPiH-14" value="Completion and taking into use of the buildings of the General Archive of Simancas&amp;nbsp;" style="swimlane;fontStyle=0;childLayout=stackLayout;horizontal=1;startSize=40;strokeColor=#DDD9C3;strokeWidth=2;fillColor=none;horizontalStack=0;resizeParent=1;resizeParentMax=0;resizeLast=0;collapsible=1;marginBottom=0;whiteSpace=wrap;html=1;" vertex="1" parent="1">
          <mxGeometry x="650" y="133" width="260" height="66" as="geometry" />
        </mxCell>
        <mxCell id="SC_8lG-UtxNycMUHuPiH-15" value="rico:Date" style="text;strokeColor=#DDD9C3;strokeWidth=2;fillColor=#DDD9C3;align=center;verticalAlign=top;spacingLeft=4;spacingRight=4;overflow=hidden;rotatable=0;points=[[0,0.5],[1,0.5]];portConstraint=eastwest;whiteSpace=wrap;html=1;" vertex="1" parent="SC_8lG-UtxNycMUHuPiH-14">
          <mxGeometry y="40" width="260" height="26" as="geometry" />
        </mxCell>
        <mxCell id="SC_8lG-UtxNycMUHuPiH-16" value="" style="endArrow=classic;html=1;rounded=0;entryX=0.5;entryY=1;entryDx=0;entryDy=0;exitX=0.5;exitY=0;exitDx=0;exitDy=0;" edge="1" parent="1" source="SC_8lG-UtxNycMUHuPiH-14" target="SC_8lG-UtxNycMUHuPiH-18">
          <mxGeometry relative="1" as="geometry">
            <mxPoint x="780" y="130" as="sourcePoint" />
            <mxPoint x="790" y="70" as="targetPoint" />
          </mxGeometry>
        </mxCell>
        <mxCell id="SC_8lG-UtxNycMUHuPiH-17" value="expressed date" style="edgeLabel;resizable=0;html=1;;align=center;verticalAlign=middle;" connectable="0" vertex="1" parent="SC_8lG-UtxNycMUHuPiH-16">
          <mxGeometry relative="1" as="geometry" />
        </mxCell>
        <mxCell id="SC_8lG-UtxNycMUHuPiH-18" value="1580s" style="html=1;whiteSpace=wrap;rounded=1;arcSize=50;" vertex="1" parent="1">
          <mxGeometry x="725" y="30" width="110" height="50" as="geometry" />
        </mxCell>
        <mxCell id="SC_8lG-UtxNycMUHuPiH-19" value="" style="endArrow=classic;html=1;rounded=0;exitX=0.5;exitY=0;exitDx=0;exitDy=0;entryX=0.5;entryY=1;entryDx=0;entryDy=0;" edge="1" parent="1" target="SC_8lG-UtxNycMUHuPiH-21">
          <mxGeometry relative="1" as="geometry">
            <mxPoint x="900" y="133" as="sourcePoint" />
            <mxPoint x="940" y="80" as="targetPoint" />
          </mxGeometry>
        </mxCell>
        <mxCell id="SC_8lG-UtxNycMUHuPiH-20" value="normalized date" style="edgeLabel;resizable=0;html=1;;align=center;verticalAlign=middle;" connectable="0" vertex="1" parent="SC_8lG-UtxNycMUHuPiH-19">
          <mxGeometry relative="1" as="geometry" />
        </mxCell>
        <mxCell id="SC_8lG-UtxNycMUHuPiH-21" value="158X" style="html=1;whiteSpace=wrap;rounded=1;arcSize=50;" vertex="1" parent="1">
          <mxGeometry x="920" y="30" width="110" height="50" as="geometry" />
        </mxCell>
        <mxCell id="SC_8lG-UtxNycMUHuPiH-26" value="" style="endArrow=classic;html=1;rounded=0;exitX=1.002;exitY=0.071;exitDx=0;exitDy=0;exitPerimeter=0;entryX=0.003;entryY=0.114;entryDx=0;entryDy=0;entryPerimeter=0;" edge="1" parent="1" source="SC_8lG-UtxNycMUHuPiH-2" target="SC_8lG-UtxNycMUHuPiH-29">
          <mxGeometry relative="1" as="geometry">
            <mxPoint x="537.5" y="476" as="sourcePoint" />
            <mxPoint x="720" y="478" as="targetPoint" />
          </mxGeometry>
        </mxCell>
        <mxCell id="SC_8lG-UtxNycMUHuPiH-27" value="rico:hasRecordSetType" style="edgeLabel;resizable=0;html=1;;align=center;verticalAlign=middle;" connectable="0" vertex="1" parent="SC_8lG-UtxNycMUHuPiH-26">
          <mxGeometry relative="1" as="geometry" />
        </mxCell>
        <mxCell id="SC_8lG-UtxNycMUHuPiH-28" value="Fonds" style="swimlane;fontStyle=0;childLayout=stackLayout;horizontal=1;startSize=26;fillColor=none;horizontalStack=0;resizeParent=1;resizeParentMax=0;resizeLast=0;collapsible=1;marginBottom=0;whiteSpace=wrap;html=1;" vertex="1" parent="1">
          <mxGeometry x="690" y="450" width="135" height="52" as="geometry">
            <mxRectangle x="981" y="570" width="50" height="40" as="alternateBounds" />
          </mxGeometry>
        </mxCell>
        <mxCell id="SC_8lG-UtxNycMUHuPiH-29" value="rico:RecordSetType&lt;div&gt;&lt;br&gt;&lt;/div&gt;" style="text;fillColor=none;align=center;verticalAlign=top;spacingLeft=4;spacingRight=4;overflow=hidden;rotatable=0;points=[[0,0.5],[1,0.5]];portConstraint=eastwest;whiteSpace=wrap;html=1;" vertex="1" parent="SC_8lG-UtxNycMUHuPiH-28">
          <mxGeometry y="26" width="135" height="26" as="geometry" />
        </mxCell>
      </root>
    </mxGraphModel>
  </diagram>
</mxfile>
